<svg width="36" height="36" viewBox="0 0 36 36" fill="none" xmlns="http://www.w3.org/2000/svg">
<path d="M22.923 2.66205C23.1967 3.00151 23.3362 3.45967 23.6141 4.37486L29.7048 24.3819C27.4171 23.1945 24.9617 22.3632 22.4232 21.9167L18.4582 8.51626C18.4269 8.40914 18.3617 8.31507 18.2723 8.24819C18.183 8.1813 18.0744 8.14521 17.9628 8.14533C17.8512 8.14546 17.7426 8.1818 17.6534 8.24889C17.5642 8.31598 17.4992 8.4102 17.4682 8.51739L13.5506 21.91C11.0011 22.3546 8.53472 23.1872 6.2373 24.3788L12.3567 4.37064C12.6369 3.45658 12.7764 2.99926 13.0497 2.6598C13.2914 2.36098 13.6053 2.12883 13.9618 1.98536C14.3649 1.82364 14.8438 1.82364 15.7998 1.82364H20.1713C21.1281 1.82364 21.6071 1.82364 22.0115 1.98648C22.3682 2.12993 22.6819 2.36254 22.923 2.66205Z" fill="url(#paint0_linear_116_17)"/>
<path d="M23.6514 25.3333C22.6474 26.1925 20.6432 26.7781 18.335 26.7781C15.5028 26.7781 13.1276 25.8958 12.4979 24.7092C12.2729 25.3893 12.2223 26.1672 12.2223 26.665C12.2223 26.665 12.0741 29.1049 13.7714 30.8022C13.7714 30.5927 13.8127 30.3853 13.8928 30.1918C13.973 29.9983 14.0905 29.8224 14.2387 29.6743C14.3868 29.5262 14.5626 29.4087 14.7562 29.3286C14.9497 29.2484 15.1572 29.2072 15.3666 29.2073C16.877 29.2073 16.8761 30.5244 16.875 31.5945V31.689C16.875 33.3127 17.867 34.7037 19.2777 35.2904C19.0603 34.8437 18.9476 34.3534 18.9481 33.8566C18.9481 32.3075 19.8565 31.7318 20.9135 31.0615C21.7541 30.5289 22.6879 29.9365 23.3305 28.7491C23.6774 28.1093 23.8587 27.3928 23.8579 26.665C23.8583 26.2131 23.7886 25.7639 23.6514 25.3333Z" fill="#FF5D01"/>
<path d="M23.6514 25.3333C22.6474 26.1925 20.6432 26.7781 18.335 26.7781C15.5028 26.7781 13.1276 25.8958 12.4979 24.7092C12.2729 25.3893 12.2223 26.1672 12.2223 26.665C12.2223 26.665 12.0741 29.1049 13.7714 30.8022C13.7714 30.5927 13.8127 30.3853 13.8928 30.1918C13.973 29.9983 14.0905 29.8224 14.2387 29.6743C14.3868 29.5262 14.5626 29.4087 14.7562 29.3286C14.9497 29.2484 15.1572 29.2072 15.3666 29.2073C16.877 29.2073 16.8761 30.5244 16.875 31.5945V31.689C16.875 33.3127 17.867 34.7037 19.2777 35.2904C19.0603 34.8437 18.9476 34.3534 18.9481 33.8566C18.9481 32.3075 19.8565 31.7318 20.9135 31.0615C21.7541 30.5289 22.6879 29.9365 23.3305 28.7491C23.6774 28.1093 23.8587 27.3928 23.8579 26.665C23.8583 26.2131 23.7886 25.7639 23.6514 25.3333Z" fill="url(#paint1_linear_116_17)"/>
<defs>
<linearGradient id="paint0_linear_116_17" x1="24.8343" y1="0.762567" x2="19" y2="26.5" gradientUnits="userSpaceOnUse">
<stop offset="0.530723" stop-color="white"/>
<stop offset="0.91933" stop-color="#FF8039"/>
</linearGradient>
<linearGradient id="paint1_linear_116_17" x1="28.1722" y1="18.3502" x2="22.2279" y2="30.7944" gradientUnits="userSpaceOnUse">
<stop stop-color="#FF1639"/>
<stop offset="1" stop-color="#FF1639" stop-opacity="0"/>
</linearGradient>
</defs>
</svg>
