<svg width="30" height="30" viewBox="0 0 30 30" fill="none" xmlns="http://www.w3.org/2000/svg">
<path d="M26.25 20V23.75C26.25 25.8212 21.2125 27.5 15 27.5C8.7875 27.5 3.75 25.8212 3.75 23.75V20C3.75 22.0712 8.7875 23.75 15 23.75C21.2125 23.75 26.25 22.0712 26.25 20ZM15 18.75C8.7875 18.75 3.75 17.0712 3.75 15V18.75C3.75 20.8212 8.7875 22.5 15 22.5C21.2125 22.5 26.25 20.8212 26.25 18.75V15C26.25 17.0712 21.2125 18.75 15 18.75ZM15 2.5C8.7875 2.5 3.75 4.17875 3.75 6.25V8.75C3.75 10.8212 8.7875 12.5 15 12.5C21.2125 12.5 26.25 10.8212 26.25 8.75V6.25C26.25 4.17875 21.2125 2.5 15 2.5ZM15 13.75C8.7875 13.75 3.75 12.0712 3.75 10V13.75C3.75 15.8212 8.7875 17.5 15 17.5C21.2125 17.5 26.25 15.8212 26.25 13.75V10C26.25 12.0712 21.2125 13.75 15 13.75Z" fill="#EBAB2F"/>
</svg>
