<svg width="30" height="22" viewBox="0 0 30 22" fill="none" xmlns="http://www.w3.org/2000/svg">
<g clip-path="url(#clip0_129_91)">
<path d="M29.381 8.26137C28.7054 7.79262 27.1572 7.61684 25.9469 7.85121C25.8063 6.67934 25.1588 5.65406 24.0329 4.74586L23.3856 4.27711L22.9351 4.95094C22.3722 5.82984 22.0908 7.06031 22.1751 8.23219C22.2033 8.64223 22.344 9.37465 22.7662 10.0192C22.3722 10.2536 21.5559 10.5465 20.4863 10.5465H0.135564L0.0793138 10.7809C-0.117796 11.9527 -0.117796 15.6146 2.19033 18.427C3.93549 20.5656 6.52509 21.6496 9.93091 21.6496C17.3055 21.6496 22.7662 18.1046 25.3277 11.689C26.341 11.7183 28.5084 11.689 29.6062 9.49172C29.6344 9.43313 29.6906 9.31594 29.8876 8.8766L30.0002 8.64223L29.381 8.26137ZM16.4048 0H13.3087V2.92957H16.4048V0ZM16.4048 3.51551H13.3087V6.44508H16.4048V3.51551ZM12.7456 3.51551H9.64955V6.44508H12.7456V3.51551ZM9.08646 3.51551H5.99025V6.44508H9.08646V3.51551ZM5.42728 7.03102H2.33107V9.96059H5.42717L5.42728 7.03102ZM9.08646 7.03102H5.99025V9.96059H9.08646V7.03102ZM12.7456 7.03102H9.64955V9.96059H12.7456V7.03102ZM16.4049 7.03102H13.3086V9.96059H16.4049V7.03102ZM20.0641 7.03102H16.9678V9.96059H20.0641V7.03102Z" fill="#2396ED"/>
</g>
<defs>
<clipPath id="clip0_129_91">
<rect width="30" height="21.6797" fill="white"/>
</clipPath>
</defs>
</svg>
