<svg width="17" height="25" viewBox="0 0 17 25" fill="none" xmlns="http://www.w3.org/2000/svg">
<g clip-path="url(#clip0_129_93)">
<path d="M4.16667 25C6.46667 25 8.33333 23.1333 8.33333 20.8333V16.6667H4.16667C1.86667 16.6667 0 18.5333 0 20.8333C0 23.1333 1.86667 25 4.16667 25Z" fill="#0ACF83"/>
<path d="M0 12.5C0 10.2 1.86667 8.33333 4.16667 8.33333H8.33333V16.6667H4.16667C1.86667 16.6667 0 14.8 0 12.5Z" fill="#A259FF"/>
<path d="M0 4.16667C0 1.86667 1.86667 0 4.16667 0H8.33333V8.33333H4.16667C1.86667 8.33333 0 6.46667 0 4.16667Z" fill="#F24E1E"/>
<path d="M8.33331 0H12.5C14.8 0 16.6666 1.86667 16.6666 4.16667C16.6666 6.46667 14.8 8.33333 12.5 8.33333H8.33331V0Z" fill="#FF7262"/>
<path d="M16.6666 12.5C16.6666 14.8 14.8 16.6667 12.5 16.6667C10.2 16.6667 8.33331 14.8 8.33331 12.5C8.33331 10.2 10.2 8.33333 12.5 8.33333C14.8 8.33333 16.6666 10.2 16.6666 12.5Z" fill="#1ABCFE"/>
</g>
<defs>
<clipPath id="clip0_129_93">
<rect width="16.6667" height="25" fill="white"/>
</clipPath>
</defs>
</svg>
