<svg width="30" height="30" viewBox="0 0 30 30" fill="none" xmlns="http://www.w3.org/2000/svg">
<g clip-path="url(#clip0_122_53)">
<path d="M4.09546 24.2053L7.78804 0.577017C7.81015 0.435808 7.87607 0.305116 7.97649 0.2034C8.0769 0.101684 8.20673 0.0340842 8.34764 0.0101499C8.48856 -0.0137845 8.63343 0.00715581 8.76179 0.0700131C8.89016 0.13287 8.99554 0.234468 9.06304 0.360455L12.8819 7.48311L14.404 4.58483C14.4618 4.47489 14.5487 4.38285 14.655 4.31865C14.7614 4.25444 14.8833 4.2205 15.0075 4.2205C15.1317 4.2205 15.2536 4.25444 15.36 4.31865C15.4663 4.38285 15.5531 4.47489 15.611 4.58483L25.9165 24.2053H4.09546Z" fill="#FFA000"/>
<path d="M16.8523 15.0012L12.8801 7.47961L4.09546 24.2053L16.8523 15.0012Z" fill="#F57C00"/>
<path d="M25.9165 24.2053L23.0883 6.70407C23.0674 6.5807 23.0129 6.46546 22.9309 6.37096C22.8489 6.27646 22.7425 6.20635 22.6233 6.16829C22.5041 6.13033 22.3768 6.12586 22.2553 6.15537C22.1338 6.18489 22.0227 6.24725 21.9342 6.33563L4.09546 24.2051L13.9662 29.7406C14.271 29.9107 14.6143 30 14.9634 30C15.3125 30 15.6559 29.9107 15.9607 29.7406L25.9165 24.2053Z" fill="#FFCA28"/>
<path d="M23.0883 6.70405C23.0674 6.58068 23.0129 6.46544 22.9309 6.37095C22.8489 6.27645 22.7425 6.20633 22.6233 6.16827C22.5041 6.13028 22.3768 6.12577 22.2553 6.15525C22.1338 6.18472 22.0227 6.24703 21.9342 6.33538L18.3935 9.88546L15.6094 4.58483C15.5515 4.4749 15.4647 4.38286 15.3583 4.31865C15.252 4.25444 15.1301 4.22051 15.0058 4.22051C14.8816 4.22051 14.7597 4.25444 14.6534 4.31865C14.547 4.38286 14.4602 4.4749 14.4023 4.58483L12.8803 7.48288L9.06139 0.360459C8.9938 0.234298 8.88824 0.132595 8.75965 0.0697518C8.63107 0.00690878 8.48597 -0.0138893 8.3449 0.0103026C8.20393 0.0344879 8.07414 0.102378 7.97387 0.204373C7.8736 0.306367 7.80793 0.437302 7.78615 0.578662L4.09545 24.2053H4.0835L4.09521 24.2189L4.19248 24.2667L21.929 6.50952C22.0175 6.42068 22.1287 6.35793 22.2505 6.32818C22.3723 6.29843 22.4999 6.30282 22.6194 6.34087C22.7388 6.37891 22.8455 6.44915 22.9276 6.54386C23.0098 6.63857 23.0642 6.75409 23.085 6.87772L25.8893 24.2222L25.9165 24.2051L23.0883 6.70405ZM4.12779 24.173L7.78779 0.745771C7.80954 0.604336 7.87522 0.473324 7.97554 0.371281C8.07586 0.269237 8.20573 0.201332 8.34678 0.177178C8.48787 0.153006 8.63298 0.173839 8.76158 0.236726C8.89017 0.299612 8.99571 0.401364 9.06326 0.527568L12.8817 7.65022L14.404 4.75194C14.4618 4.64201 14.5486 4.54997 14.655 4.48576C14.7614 4.42155 14.8832 4.38762 15.0075 4.38762C15.1317 4.38762 15.2536 4.42155 15.36 4.48576C15.4663 4.54997 15.5531 4.64201 15.611 4.75194L18.3387 9.93983L4.12732 24.173H4.12779Z" fill="white" fill-opacity="0.2"/>
<path opacity="0.2" d="M15.9607 29.5734C15.6558 29.7436 15.3125 29.8329 14.9634 29.8329C14.6143 29.8329 14.271 29.7436 13.9661 29.5734L4.11888 24.0539L4.09497 24.2056L13.9657 29.7391C14.2705 29.9093 14.6138 29.9986 14.9629 29.9986C15.3121 29.9986 15.6554 29.9093 15.9602 29.7391L25.9165 24.2056L25.8907 24.0485L15.9602 29.5739L15.9607 29.5734Z" fill="#A52714"/>
</g>
<defs>
<clipPath id="clip0_122_53">
<rect width="30" height="30" fill="white"/>
</clipPath>
</defs>
</svg>
