<svg width="30" height="34" viewBox="0 0 30 34" fill="none" xmlns="http://www.w3.org/2000/svg">
<g clip-path="url(#clip0_122_34)">
<path fill-rule="evenodd" clip-rule="evenodd" d="M17.8798 3.89147L24.811 7.92306C25.0111 7.70976 25.2407 7.5267 25.4928 7.37953C26.9302 6.54701 28.7637 7.04131 29.5987 8.48949C30.4251 9.93768 29.9344 11.7847 28.4969 12.6258C28.2467 12.7709 27.9771 12.8791 27.6963 12.9469V21.0131C27.974 21.081 28.2407 21.1884 28.4883 21.332C29.9344 22.1732 30.4251 24.0203 29.5901 25.4685C28.7637 26.9165 26.9216 27.4108 25.4841 26.5784C25.2056 26.4175 24.9547 26.2123 24.7411 25.9708L17.8521 29.9776C17.953 30.2854 18.0043 30.6074 18.0039 30.9315C18.0039 32.5964 16.6612 33.958 14.9998 33.958C13.3384 33.958 11.9957 32.6051 11.9957 30.9315C11.9957 30.634 12.0381 30.3467 12.1172 30.0752L5.18791 26.0448C4.99 26.2539 4.76359 26.4336 4.51549 26.5784C3.0694 27.4108 1.23588 26.9165 0.409474 25.4685C-0.416815 24.0203 0.0738486 22.1732 1.51127 21.332C1.7589 21.1884 2.02555 21.0809 2.30322 21.0129V12.9469C2.02249 12.8791 1.75289 12.7709 1.50272 12.6258C0.0651767 11.7934 -0.425487 9.93768 0.400919 8.48949C1.22733 7.04131 3.06928 6.54701 4.50682 7.37953C4.75749 7.52591 4.986 7.70781 5.18533 7.91964L12.1185 3.88698C12.0368 3.60753 11.9954 3.31768 11.9957 3.02635C11.9957 1.35292 13.3384 0 14.9998 0C16.6612 0 18.0039 1.3528 18.0039 3.02635C18.0039 3.32716 17.9605 3.61746 17.8798 3.89147ZM17.1577 5.13365L24.1054 9.17469C23.9947 9.56428 23.963 9.9723 24.0121 10.3745C24.0611 10.7767 24.19 11.1648 24.391 11.5158C24.8139 12.257 25.5028 12.7483 26.2675 12.9398V21.016C26.2285 21.0256 26.1897 21.0361 26.1511 21.0472L17.0769 5.21451C17.1044 5.18807 17.1313 5.16103 17.1577 5.13365ZM12.9245 5.2164L3.85045 21.0488C3.81121 21.0374 3.77175 21.0268 3.73209 21.017V12.94C4.49674 12.7485 5.18568 12.2571 5.60861 11.516C5.80999 11.1643 5.93896 10.7753 5.98783 10.3723C6.03669 9.9693 6.00445 9.5605 5.89303 9.17032L12.8387 5.13046C12.8667 5.15962 12.8953 5.18842 12.9245 5.2164ZM15.8392 5.93347L24.9112 21.7624C24.7033 21.9621 24.5252 22.191 24.3823 22.442C24.2397 22.6915 24.1331 22.9601 24.0656 23.2398H5.93416C5.86663 22.9601 5.75993 22.6915 5.61729 22.442C5.47385 22.1928 5.29607 21.9652 5.08924 21.7663L14.163 5.93418C14.435 6.01309 14.7167 6.05299 14.9998 6.05271C15.2912 6.05271 15.5728 6.01115 15.8392 5.93347ZM17.2214 28.8927L24.124 24.8778C24.1033 24.8123 24.0848 24.7461 24.0686 24.6793H5.93029C5.92067 24.7185 5.91028 24.7576 5.89912 24.7964L12.8355 28.8309C13.1156 28.5375 13.4517 28.3042 13.8237 28.1451C14.1956 27.986 14.5957 27.9044 14.9998 27.9051C15.418 27.9044 15.8318 27.9919 16.2144 28.162C16.597 28.3321 16.9401 28.581 17.2214 28.8927Z" fill="#E535AB"/>
</g>
<defs>
<clipPath id="clip0_122_34">
<rect width="30" height="34" fill="white"/>
</clipPath>
</defs>
</svg>
