<svg width="30" height="31" viewBox="0 0 30 31" fill="none" xmlns="http://www.w3.org/2000/svg">
<g clip-path="url(#clip0_122_36)">
<path d="M27.3633 0.241069C27.5516 -0.0483842 27.9735 -0.0858841 28.2002 0.176381C29.9031 2.14443 30.4501 7.42279 29.6153 10.1766L29.5744 10.3058C29.2779 11.2083 29.1942 12.1621 29.3652 13.0885L29.4345 13.4652L29.5013 13.8549C29.6201 14.5763 29.7137 15.3246 29.7137 15.8916C29.7137 23.8276 23.1259 30.2649 14.9965 30.2649C6.8706 30.2649 0.279155 23.831 0.279155 15.8916C0.279155 15.2731 0.390718 14.4387 0.524663 13.6589L0.593101 13.2748C0.604702 13.212 0.616304 13.1497 0.627905 13.0885C0.791968 12.2166 0.730562 11.3204 0.475679 10.4656L0.42564 10.3058C-0.467212 7.59458 0.0698587 2.17912 1.79966 0.176381C2.01447 -0.0688919 2.40447 -0.0511966 2.60509 0.197475L2.63673 0.241069L4.76755 3.50744C5.29771 4.15794 6.24634 4.31123 6.95779 3.85478C9.2699 2.37658 12.032 1.5183 15 1.5183C17.9679 1.5183 20.7299 2.37658 23.0421 3.85478C23.7334 4.29599 24.6429 4.17072 25.1785 3.57119L25.2325 3.50744L27.3633 0.241069ZM15 4.80165C13.2563 4.80165 11.6031 5.1831 10.1279 5.87123C6.44861 7.57419 3.84693 11.147 3.62017 15.3295C3.60911 15.5281 3.60332 15.7268 3.60283 15.9257C3.60283 22.0633 8.71197 27.0565 14.9965 27.0565C21.281 27.0565 26.3937 22.0633 26.3972 15.9291C26.3972 15.7315 26.3902 15.5306 26.3797 15.3331C26.153 11.1538 23.5514 7.57759 19.8721 5.87451C18.3933 5.1831 16.7438 4.80165 15 4.80165ZM14.243 11.0107C14.3438 11.0107 14.4392 11.055 14.5011 11.1324L14.5256 11.1675L17.0227 15.2785L19.9348 20.2104C19.9639 20.2581 19.9793 20.3129 19.9793 20.3688C19.9793 20.4247 19.9639 20.4795 19.9348 20.5272C19.8859 20.6136 19.797 20.6713 19.6961 20.6844L19.6522 20.6872H17.2842C17.1835 20.6872 17.0882 20.6404 17.0262 20.5624L17.0017 20.5272L15.4463 17.8942L13.7131 20.5372C13.687 20.577 13.6525 20.6105 13.612 20.6354C13.5716 20.6603 13.5261 20.676 13.4789 20.6814L13.4374 20.6837H11.0345C10.9125 20.6837 10.8008 20.619 10.7451 20.5168C10.7209 20.4728 10.7076 20.4237 10.7062 20.3735C10.7048 20.3233 10.7154 20.2735 10.7371 20.2282L10.759 20.19L13.9641 15.4146L11.5751 11.4944C11.5158 11.3956 11.5124 11.273 11.5716 11.1742C11.5968 11.1306 11.6318 11.0934 11.6738 11.0656C11.7158 11.0377 11.7637 11.02 11.8137 11.0136L11.8576 11.0107H14.243Z" fill="#1EB4D4"/>
</g>
<defs>
<clipPath id="clip0_122_36">
<rect width="30" height="30.3516" fill="white"/>
</clipPath>
</defs>
</svg>
