<svg width="30" height="30" viewBox="0 0 30 30" fill="none" xmlns="http://www.w3.org/2000/svg">
<g clip-path="url(#clip0_122_38)">
<path d="M17.6644 0C17.4475 0 17.246 0.0465234 17.06 0.108516C17.4552 0.371836 17.6721 0.720469 17.7805 1.11563C17.7884 1.16988 17.8038 1.20867 17.8116 1.26281C17.8193 1.30934 17.827 1.35586 17.827 1.40227C17.8581 2.08406 17.6489 2.16926 17.5016 2.57215C17.277 3.09129 17.3389 3.6491 17.6101 4.0984C17.6333 4.15266 17.6644 4.21465 17.7031 4.26891C17.4087 2.30871 19.0434 2.01434 19.3456 1.40227C19.3688 0.867773 18.9272 0.511289 18.5786 0.263437C18.2454 0.061875 17.9433 0 17.6644 0ZM20.128 0.441562C20.0971 0.619805 20.1203 0.573281 20.1125 0.666328C20.1048 0.72832 20.1048 0.805781 20.0971 0.867773C20.0816 0.929648 20.0661 0.991641 20.0428 1.05363C20.0273 1.11574 20.0041 1.17762 19.9809 1.23961C19.9499 1.3016 19.9267 1.35586 19.8956 1.41773C19.8724 1.44879 19.857 1.47984 19.8336 1.51078L19.7872 1.58051C19.7486 1.63477 19.7098 1.68902 19.671 1.73543C19.6245 1.78195 19.5858 1.83621 19.5315 1.87488V1.88262C19.485 1.92141 19.4386 1.96793 19.3843 2.0066C19.2217 2.13059 19.0357 2.22352 18.8652 2.33977C18.8111 2.37844 18.7568 2.40949 18.7103 2.45602C18.656 2.49469 18.6095 2.53336 18.5631 2.58C18.5088 2.62641 18.4702 2.67293 18.4236 2.72719C18.385 2.77359 18.3384 2.82797 18.3074 2.88211C18.2687 2.93637 18.23 2.99051 18.199 3.04477C18.1679 3.10688 18.1447 3.16102 18.1137 3.22289C18.0905 3.285 18.0673 3.33926 18.0518 3.40113C18.0285 3.47086 18.013 3.53285 17.9975 3.59484C17.9898 3.6259 17.9898 3.66457 17.9821 3.69562C17.9742 3.72656 17.9742 3.75762 17.9666 3.78855C17.9666 3.85055 17.9588 3.92027 17.9588 3.98227C17.9588 4.02879 17.9588 4.0752 17.9666 4.12172C17.9666 4.18371 17.9743 4.2457 17.9898 4.31543C17.9975 4.37742 18.013 4.4393 18.0285 4.50129C18.0518 4.5634 18.0673 4.62527 18.0906 4.68727C18.1059 4.72594 18.1293 4.76473 18.1447 4.79578L16.3629 4.10625C16.0652 4.0215 15.7656 3.94398 15.4642 3.87375L14.9761 3.75762C14.5112 3.66457 14.0386 3.59484 13.5661 3.54844C13.5506 3.54844 13.5428 3.54059 13.5274 3.54059C13.0666 3.49417 12.6037 3.4709 12.1405 3.47086C11.7996 3.47086 11.4587 3.48633 11.1257 3.50953C10.6529 3.54059 10.1804 3.60258 9.7077 3.68004C9.59157 3.69562 9.47532 3.71883 9.35918 3.74215C9.11895 3.78855 8.88657 3.84281 8.66192 3.89707L8.31317 3.99C8.19704 4.03652 8.08852 4.09078 7.98012 4.13719L7.72442 4.25344C7.70895 4.26117 7.69336 4.26117 7.68575 4.26891C7.60817 4.30758 7.53844 4.33863 7.46872 4.3773C7.45005 4.38365 7.43191 4.39145 7.41446 4.40062C7.32926 4.4393 7.24407 4.48582 7.17434 4.52461C7.12008 4.54781 7.06583 4.57875 7.01942 4.60195C6.99693 4.6162 6.97365 4.62915 6.94969 4.64074C6.87997 4.67941 6.81024 4.7182 6.74813 4.75699C6.68404 4.79221 6.62199 4.83102 6.56227 4.87324C6.50801 4.91191 6.45387 4.94297 6.40735 4.98164C6.39961 4.98937 6.39188 4.98937 6.38403 4.99711C6.33762 5.02816 6.28336 5.06684 6.23684 5.10563L6.22137 5.12109L6.10524 5.21402C6.08965 5.22188 6.07418 5.23734 6.05872 5.24508C6.02004 5.27602 5.98125 5.3148 5.94247 5.34586C5.93473 5.36121 5.91926 5.36906 5.91153 5.3768C5.865 5.42332 5.81848 5.46199 5.77208 5.50852C5.76422 5.50852 5.76422 5.51625 5.75661 5.52398C5.71008 5.56266 5.66356 5.60918 5.61715 5.6557C5.6093 5.66344 5.6093 5.67117 5.60157 5.67117C5.5629 5.70984 5.52422 5.74863 5.48543 5.79516C5.46997 5.81062 5.44676 5.82609 5.43118 5.84156C5.39251 5.88809 5.34598 5.93461 5.29946 5.98102C5.29172 5.9966 5.27626 6.00434 5.2684 6.0198C5.20653 6.0818 5.15227 6.14379 5.09028 6.20578L5.06708 6.22898C4.94309 6.3607 4.81137 6.49242 4.67192 6.60867C4.53454 6.73126 4.38961 6.84512 4.23797 6.94957C4.08775 7.05492 3.93266 7.15315 3.77321 7.24395C3.61508 7.33066 3.45212 7.40825 3.28512 7.47633C3.12031 7.54636 2.95223 7.60843 2.78145 7.6623C2.45614 7.73203 2.12286 7.86375 1.83633 7.88695C1.77422 7.88695 1.70461 7.90242 1.64262 7.91016C1.57786 7.92484 1.51328 7.94035 1.44891 7.95668L1.26293 8.02641C1.20094 8.04961 1.13907 8.08066 1.07708 8.1116C1.02282 8.15027 0.960825 8.18133 0.906567 8.22012C0.85231 8.25879 0.798169 8.30531 0.751646 8.35184C0.697388 8.39051 0.64313 8.44477 0.596724 8.49129C0.5502 8.54555 0.503677 8.59207 0.465005 8.64621C0.426333 8.7082 0.37981 8.76246 0.348755 8.82434C0.310083 8.87871 0.271294 8.94059 0.240239 9.00258C0.209302 9.0723 0.178364 9.1343 0.155044 9.20414C0.130606 9.27083 0.10736 9.33795 0.0853174 9.40547C0.0698486 9.46746 0.0543799 9.52945 0.0466455 9.59145C0.0466455 9.59918 0.0387939 9.60691 0.0387939 9.61465C0.0233252 9.68437 0.0233252 9.77742 0.0155908 9.82383C0.00785645 9.87809 0.00012207 9.92461 0.00012207 9.97875C0.00012207 10.0098 0.00012207 10.0485 0.00785645 10.0795C0.0155908 10.1338 0.0233252 10.1803 0.0389111 10.2267C0.0543799 10.2732 0.0698486 10.3196 0.0931689 10.3662V10.3739C0.116372 10.4204 0.14731 10.467 0.178364 10.5134C0.209302 10.5599 0.240356 10.6064 0.279146 10.6528C0.317817 10.6915 0.364224 10.7381 0.410747 10.7768C0.457271 10.8233 0.503794 10.862 0.557935 10.9008C0.743911 11.0634 0.790434 11.1177 1.03055 11.2417C1.06922 11.2649 1.10801 11.2804 1.15454 11.3037C1.16227 11.3037 1.17 11.3114 1.17774 11.3114C1.17774 11.3269 1.17774 11.3346 1.18559 11.3501C1.19333 11.4122 1.20879 11.4741 1.22426 11.5361C1.23973 11.6058 1.26293 11.6678 1.28625 11.722C1.30946 11.7686 1.32493 11.815 1.34825 11.8615C1.35598 11.877 1.36372 11.8925 1.37145 11.9002C1.4025 11.9623 1.43356 12.0164 1.4645 12.0707L1.58063 12.2333C1.6193 12.2798 1.66583 12.3341 1.71235 12.3806C1.75887 12.427 1.8054 12.4658 1.85954 12.5122C1.85954 12.5122 1.86739 12.5201 1.875 12.5201C1.92153 12.5587 1.96805 12.5974 2.01446 12.6285C2.06872 12.6671 2.12297 12.6982 2.18497 12.7293C2.23922 12.7602 2.30122 12.7912 2.36309 12.8145C2.40961 12.8377 2.46387 12.8531 2.51813 12.8687C2.52586 12.8764 2.5336 12.8764 2.54907 12.8842C2.58012 12.8919 2.61879 12.8996 2.64985 12.9074C2.62653 13.3257 2.61879 13.7209 2.68079 13.8604C2.75051 14.0153 3.09141 13.5428 3.43231 13.0004C3.3859 13.5349 3.35497 14.1625 3.43231 14.3484C3.5175 14.5421 3.98239 13.9378 4.38528 13.2715C9.87833 12.0009 14.8909 15.7972 15.4178 21.1586C15.317 20.3218 14.2867 19.857 13.8141 19.9732C13.5816 20.5465 13.1865 21.2825 12.5513 21.7396C12.6054 21.2283 12.5822 20.7014 12.4737 20.1901C12.3033 20.9029 11.9701 21.5692 11.513 22.1425C10.777 22.1967 10.0411 21.8404 9.65356 21.3057C9.62262 21.2825 9.61489 21.236 9.59168 21.205C9.56836 21.1508 9.54516 21.0966 9.52958 21.0423C9.50701 20.9904 9.49141 20.9357 9.48317 20.8796C9.47543 20.8254 9.47543 20.7711 9.47543 20.7091V20.593C9.48317 20.5388 9.49864 20.4845 9.51411 20.4302C9.52957 20.3761 9.54516 20.3218 9.56836 20.2676C9.59942 20.2133 9.62262 20.1591 9.66129 20.1049C9.79301 19.733 9.79301 19.4309 9.5529 19.2526C9.50638 19.2223 9.4571 19.1964 9.40571 19.1753C9.37465 19.1674 9.33598 19.1518 9.30493 19.1442C9.28172 19.1364 9.26626 19.1286 9.24293 19.1209C9.18879 19.1054 9.13454 19.09 9.08028 19.0822C9.02741 19.0669 8.97266 19.0591 8.91762 19.0589C8.86336 19.0512 8.80137 19.0434 8.74711 19.0434C8.70844 19.0434 8.66977 19.0512 8.63086 19.0512C8.56899 19.0512 8.51473 19.059 8.46047 19.0745C8.40622 19.0822 8.35196 19.09 8.29782 19.1054C8.24356 19.1209 8.1893 19.1365 8.13504 19.1597C8.0809 19.1829 8.03426 19.2062 7.98012 19.2294C7.9336 19.2526 7.88719 19.2837 7.83294 19.3069C6.02778 20.4846 7.10461 23.2426 8.33649 24.0407C7.87161 24.1259 7.39899 24.2266 7.26739 24.3273L7.25192 24.3428C7.58497 24.5443 7.9336 24.7147 8.29782 24.8619C8.79364 25.0246 9.32051 25.1718 9.5529 25.2338V25.2415C10.1948 25.3731 10.8512 25.42 11.5052 25.3809C14.9374 25.1407 17.7498 22.5299 18.2611 19.09C18.2766 19.1597 18.2922 19.2217 18.3076 19.2914C18.3308 19.4309 18.3619 19.578 18.3773 19.7252V19.7331C18.3928 19.8028 18.4006 19.8725 18.4084 19.9345V19.9655C18.4161 20.0352 18.4239 20.1049 18.4239 20.1669C18.4316 20.2521 18.4393 20.3373 18.4393 20.4226V20.5465C18.4393 20.5853 18.4471 20.6318 18.4471 20.6705C18.4471 20.717 18.4393 20.7635 18.4393 20.8099V20.9184C18.4393 20.9727 18.4316 21.0192 18.4316 21.0734C18.4316 21.1044 18.4316 21.1354 18.4238 21.1741C18.4238 21.2283 18.416 21.2825 18.416 21.3445C18.4083 21.3677 18.4083 21.3911 18.4083 21.4143C18.4006 21.4763 18.3928 21.5305 18.385 21.5924C18.385 21.6157 18.385 21.6389 18.3772 21.6622C18.3695 21.7396 18.354 21.8094 18.3463 21.8869V21.9023C18.3308 21.9721 18.3152 22.0496 18.2998 22.1194V22.1426L18.2532 22.3518C18.2532 22.3595 18.2455 22.375 18.2455 22.3827C18.23 22.4524 18.2146 22.5221 18.1913 22.592V22.6152C18.1681 22.6927 18.1448 22.7624 18.1294 22.8321C18.1215 22.8398 18.1215 22.8476 18.1215 22.8476L18.0518 23.08C18.0209 23.1575 17.9977 23.2273 17.9666 23.3047C17.9357 23.3821 17.9123 23.4596 17.8814 23.5294C17.8504 23.6068 17.8193 23.6766 17.7885 23.754H17.7806C17.7497 23.8238 17.7186 23.9012 17.6798 23.9709C17.6735 23.9896 17.6658 24.0077 17.6566 24.0252C17.6489 24.033 17.6489 24.0407 17.6412 24.0485C17.1376 25.0634 16.3938 25.9543 15.4642 26.6516C15.4021 26.6903 15.3402 26.7369 15.2782 26.7833C15.2627 26.7988 15.2395 26.8066 15.2239 26.822C15.1697 26.8608 15.1156 26.8996 15.0536 26.9382L15.0768 26.9848H15.0845L15.4099 26.9382H15.4177C15.6192 26.9073 15.8206 26.8685 16.022 26.8298C16.0763 26.8221 16.1382 26.8066 16.1924 26.7912C16.2312 26.7833 16.2621 26.7756 16.3009 26.7679C16.3552 26.7601 16.4094 26.7446 16.4636 26.7368C16.5101 26.7213 16.5566 26.7136 16.603 26.6981C17.3779 26.5121 18.1294 26.2564 18.8498 25.9543C17.618 27.6355 15.9677 28.9914 14.0386 29.8823C14.9296 29.8204 15.8206 29.6732 16.6806 29.4253C19.8028 28.5033 22.4292 26.4038 24.002 23.5759C23.6827 25.3697 22.971 27.0708 21.9178 28.5575C22.6687 28.0622 23.3624 27.4854 23.9864 26.8376C25.722 25.0247 26.8608 22.7236 27.2482 20.2521C27.5125 21.4783 27.5882 22.7375 27.4729 23.9865C33.0666 16.1846 27.9377 8.09625 25.7917 5.96566C25.7838 5.9502 25.7762 5.94246 25.7762 5.92699C25.7684 5.93473 25.7684 5.93473 25.7684 5.94246C25.7684 5.93461 25.7684 5.93461 25.7606 5.92699C25.7606 6.01992 25.7529 6.11285 25.7452 6.2059C25.722 6.38402 25.6986 6.55453 25.6677 6.72504C25.629 6.89543 25.5825 7.06582 25.536 7.23633C25.4808 7.40404 25.4188 7.56941 25.35 7.73203C25.2788 7.89261 25.2013 8.05031 25.1176 8.20477C25.0324 8.35195 24.9395 8.50687 24.8387 8.64633C24.7391 8.79041 24.6331 8.93 24.5211 9.06469C24.4048 9.20414 24.2809 9.32812 24.1569 9.45211C24.084 9.51885 24.0091 9.58341 23.9323 9.6457C23.8702 9.69996 23.816 9.74648 23.754 9.80074C23.6146 9.90914 23.4751 10.0099 23.3202 10.1029C23.173 10.1958 23.018 10.2888 22.8632 10.3663C22.7003 10.4437 22.5376 10.5135 22.375 10.5832C22.2098 10.6455 22.0418 10.6998 21.8714 10.7459C21.7001 10.792 21.5269 10.8308 21.3523 10.8621C21.1741 10.8932 20.996 10.9086 20.8255 10.9241C20.7015 10.9318 20.5775 10.9396 20.4536 10.9396C20.2754 10.9396 20.0972 10.9241 19.9268 10.9086C19.7486 10.893 19.5703 10.8698 19.3999 10.8311C19.2218 10.8001 19.0513 10.7537 18.8808 10.6995H18.8731C19.0436 10.6839 19.2141 10.6684 19.3845 10.6373C19.5592 10.6069 19.7325 10.5681 19.9036 10.5212C20.0739 10.4752 20.242 10.4209 20.407 10.3586C20.5775 10.2964 20.7402 10.2191 20.8952 10.1415C21.0579 10.0642 21.2051 9.97887 21.36 9.88594C21.5072 9.78516 21.6545 9.68437 21.794 9.57598C21.9327 9.46807 22.0647 9.35164 22.189 9.22734C22.3207 9.11109 22.437 8.97949 22.5532 8.84766C22.6664 8.712 22.7749 8.57246 22.8785 8.4293C22.894 8.40609 22.9096 8.37516 22.925 8.35195C23.0025 8.22797 23.08 8.10398 23.1497 7.98C23.2349 7.82638 23.3125 7.66865 23.3822 7.50738C23.4522 7.34527 23.5142 7.17984 23.5681 7.01168C23.6223 6.84879 23.6611 6.6784 23.6998 6.50801C23.7308 6.32988 23.7619 6.15937 23.7772 5.98887C23.7927 5.81074 23.8083 5.63262 23.8083 5.46211C23.8083 5.33813 23.8006 5.21414 23.7928 5.09016C23.7773 4.91203 23.7541 4.74152 23.7307 4.57102C23.7003 4.39627 23.6615 4.22307 23.6147 4.05199C23.5603 3.88934 23.5062 3.71883 23.4442 3.55617C23.3821 3.39352 23.3047 3.23074 23.2273 3.07582C23.142 2.9209 23.0568 2.76586 22.9638 2.61879C22.8649 2.47357 22.7615 2.33143 22.6539 2.19258C22.5372 2.05894 22.4184 1.9272 22.2975 1.79742C22.2322 1.73097 22.1651 1.66641 22.0961 1.60383C21.749 1.33425 21.3896 1.08085 21.0191 0.844453C20.9691 0.815593 20.9173 0.789765 20.8642 0.767109C20.6086 0.604336 20.3685 0.519141 20.1282 0.44168L20.128 0.441562Z" fill="#E0234E"/>
</g>
<defs>
<clipPath id="clip0_122_38">
<rect width="30" height="29.8828" fill="white"/>
</clipPath>
</defs>
</svg>
