<svg width="26" height="29" viewBox="0 0 26 29" fill="none" xmlns="http://www.w3.org/2000/svg">
<path d="M13.1832 0.518784C12.8054 0.518784 12.4136 0.616742 12.0917 0.798664L1.68016 6.81609C1.00844 7.20792 0.588623 7.93561 0.588623 8.71928V20.7261C0.588623 21.5098 1.00844 22.2375 1.68016 22.6293L4.40899 24.1967C5.73842 24.8404 6.18623 24.8544 6.80197 24.8544C8.76113 24.8544 9.89464 23.6649 9.89464 21.5938V9.74084C9.89464 9.57291 9.75471 9.43297 9.58678 9.43297H8.28533C8.10341 9.43297 7.96347 9.57291 7.96347 9.74084V21.5938C7.96347 22.5174 7.01188 23.427 5.48653 22.6573L2.61776 21.02C2.57064 20.9867 2.53211 20.9427 2.50535 20.8916C2.47858 20.8406 2.46435 20.7838 2.46382 20.7261V8.71928C2.46382 8.59333 2.5198 8.48138 2.61776 8.4254L13.0293 2.42197C13.1133 2.36599 13.2532 2.36599 13.3372 2.42197L23.7487 8.4254C23.8467 8.48138 23.9027 8.59333 23.9027 8.71928V20.7261C23.9027 20.8381 23.8467 20.9501 23.7487 21.02L13.3372 27.0235C13.2532 27.0794 13.1133 27.0794 13.0153 27.0235L10.3844 25.4281C10.2725 25.3862 10.1605 25.3722 10.0906 25.4141C9.34888 25.834 9.20894 25.9179 8.52323 26.1278C8.3553 26.1838 8.08942 26.2818 8.62119 26.5756L12.0917 28.6328C12.4276 28.8287 12.7914 28.9266 13.1832 28.9266C13.5751 28.9266 13.9389 28.8287 14.2748 28.6328L24.6863 22.6293C25.358 22.2375 25.7779 21.5098 25.7779 20.7261V8.71928C25.7779 7.93561 25.358 7.20792 24.6863 6.81609L14.2748 0.798664C13.9529 0.616742 13.5751 0.518784 13.1832 0.518784ZM15.982 9.12511C13.0153 9.12511 11.2381 10.3706 11.2381 12.4697C11.2381 14.7227 13.0013 15.3804 15.8561 15.6603C19.2566 15.9962 19.5225 16.5 19.5225 17.1717C19.5225 18.3332 18.5849 18.823 16.4019 18.823C13.631 18.823 13.0433 18.1373 12.8334 16.7658C12.8187 16.695 12.78 16.6313 12.724 16.5854C12.668 16.5396 12.5979 16.5144 12.5255 16.5139H11.1821C11.0142 16.5139 10.8882 16.6399 10.8882 16.8218C10.8882 18.5571 11.8398 20.6562 16.4019 20.6562C19.6905 20.6562 21.5797 19.3547 21.5797 17.0877C21.5797 14.8347 20.0683 14.2469 16.8637 13.8131C13.631 13.3933 13.3092 13.1694 13.3092 12.4137C13.3092 11.784 13.5891 10.9443 15.982 10.9443C18.0811 10.9443 18.9068 11.4061 19.2287 12.8475C19.2566 12.9875 19.3826 13.0854 19.5225 13.0854H20.88C20.9499 13.0854 21.0339 13.0574 21.0899 12.9875C21.1458 12.9315 21.1878 12.8475 21.1598 12.7635C20.9639 10.2726 19.3126 9.12511 15.982 9.12511Z" fill="#81CD39"/>
</svg>
