<svg width="45" height="45" viewBox="0 0 45 45" fill="none" xmlns="http://www.w3.org/2000/svg">
<path d="M16.079 26.0013V11.6013L27.269 5.1413C33.469 1.5613 44.569 10.3913 39.909 18.4713" fill="#31A37F"/>
<path d="M16.079 19.0013L28.549 11.8013L39.739 18.2613C45.939 21.8413 43.839 35.8713 34.509 35.8713" fill="#31A37F"/>
<path d="M22.139 15.5013L34.609 22.7013V35.6313C34.609 42.7913 21.409 47.9913 16.749 39.9113" fill="#31A37F"/>
<path d="M28.199 19.2613V33.4013L17.009 39.8613C10.809 43.4413 -0.290989 34.6113 4.36901 26.5313" fill="#31A37F"/>
<path d="M28.199 26.0013L15.729 33.2013L4.53901 26.7413C-1.67099 23.1513 0.42901 9.1313 9.75901 9.1313" fill="#31A37F"/>
<path d="M22.139 29.5013L9.66901 22.3013V9.3713C9.66901 2.2113 22.869 -2.9887 27.529 5.0913" fill="#31A37F"/>
<path d="M16.079 26.0013V11.6013L27.269 5.1413C33.469 1.5613 44.569 10.3913 39.909 18.4713M16.079 19.0013L28.549 11.8013L39.739 18.2613C45.939 21.8413 43.839 35.8713 34.509 35.8713M22.139 15.5013L34.609 22.7013V35.6313C34.609 42.7913 21.409 47.9913 16.749 39.9113M28.199 19.2613V33.4013L17.009 39.8613C10.809 43.4413 -0.290989 34.6113 4.36901 26.5313M28.199 26.0013L15.729 33.2013L4.53901 26.7413C-1.67099 23.1513 0.42901 9.1313 9.75901 9.1313M22.139 29.5013L9.66901 22.3013V9.3713C9.66901 2.2113 22.869 -2.9887 27.529 5.0913" stroke="#2A6C57" stroke-width="2" stroke-linejoin="round"/>
</svg>
