<svg width="30" height="30" viewBox="0 0 30 30" fill="none" xmlns="http://www.w3.org/2000/svg">
<g clip-path="url(#clip0_122_61)">
<path d="M0.14125 12.8375C0.0706143 13.3392 0.0234795 13.8439 0 14.35H22.7875C22.703 14.1968 22.6047 14.0516 22.4938 13.9163C18.5975 8.8825 16.5025 9.32 13.5063 9.19125C12.5063 9.14875 11.8313 9.13125 7.85125 9.13125C5.72125 9.13125 3.4075 9.1375 1.15375 9.14375C0.86125 9.93125 0.58 10.6938 0.445 11.315H12.1225V12.835H0.14125V12.8375ZM22.9662 15.87H0.01125C0.0354167 16.2767 0.0745833 16.6771 0.12875 17.0712H21.3225C22.265 17.0712 22.7962 16.5338 22.9662 15.87ZM1.31875 21.22C1.31875 21.22 4.83125 29.8475 14.9812 30C21.05 30 26.265 26.3962 28.6313 21.22H1.32H1.31875ZM14.985 0C9.375 0 4.49125 3.0825 1.91375 7.635L7.85125 7.62875V7.62625C12.4888 7.62625 12.6625 7.64625 13.5675 7.685L14.1275 7.705C16.0813 7.77 18.4838 7.98 20.3725 9.41C21.3975 10.1862 22.8813 11.8975 23.7625 13.1163C24.58 14.2438 24.815 15.5413 24.2575 16.7838C23.7475 17.9263 22.6462 18.6063 21.3162 18.6063H0.48875C0.48875 18.6063 0.6125 19.1312 0.8 19.7137H29.235C29.7394 18.1954 29.9977 16.6062 30 15.0063C30 6.72125 23.2762 0 14.985 0Z" fill="#9F1AE5"/>
</g>
<defs>
<clipPath id="clip0_122_61">
<rect width="30" height="30" fill="white"/>
</clipPath>
</defs>
</svg>
