<svg width="49" height="49" viewBox="0 0 49 49" fill="none" xmlns="http://www.w3.org/2000/svg">
<path d="M24.257 20.4688C26.3214 20.4688 28.0051 22.1524 28.0051 24.257C28.0051 26.2613 26.3214 27.965 24.257 27.965C22.1925 27.965 20.5089 26.2613 20.5089 24.257C20.5089 22.1524 22.1925 20.4688 24.257 20.4688ZM14.9769 40.2917C16.2396 41.0534 19.0056 39.8908 22.1925 36.8843C21.1502 35.7018 20.128 34.419 19.1659 33.0761C17.5508 32.9215 15.945 32.6806 14.3555 32.3545C13.3333 36.6438 13.7141 39.5902 14.9769 40.2917ZM16.4 28.7868L15.8187 27.7646C15.5982 28.3458 15.3777 28.9271 15.2374 29.4883C15.7786 29.6086 16.3799 29.7088 17.0013 29.809L16.4 28.7868ZM29.5083 27.2635L31.1319 24.257L29.5083 21.2505C28.907 20.1882 28.2656 19.2461 27.6844 18.3041C26.602 18.244 25.4596 18.244 24.257 18.244C23.0544 18.244 21.9119 18.244 20.8295 18.3041C20.2483 19.2461 19.6069 20.1882 19.0056 21.2505L17.3821 24.257L19.0056 27.2635C19.6069 28.3258 20.2483 29.2678 20.8295 30.2099C21.9119 30.27 23.0544 30.27 24.257 30.27C25.4596 30.27 26.602 30.27 27.6844 30.2099C28.2656 29.2678 28.907 28.3258 29.5083 27.2635ZM24.257 13.7943C23.8761 14.2353 23.4753 14.6963 23.0744 15.2375H25.4395C25.0387 14.6963 24.6378 14.2353 24.257 13.7943ZM24.257 34.7196C24.6378 34.2787 25.0387 33.8177 25.4395 33.2765H23.0744C23.4753 33.8177 23.8761 34.2787 24.257 34.7196ZM33.517 8.22228C32.2743 7.46063 29.5083 8.62315 26.3214 11.6297C27.3637 12.8122 28.3859 14.095 29.348 15.4379C30.9915 15.5982 32.6151 15.8388 34.1584 16.1595C35.1806 11.8702 34.7998 8.9238 33.517 8.22228ZM32.114 19.7272L32.6952 20.7494C32.9157 20.1681 33.1362 19.5869 33.2765 19.0257C32.7353 18.9054 32.134 18.8052 31.5127 18.705L32.114 19.7272ZM35.0203 5.5966C37.9666 7.28024 38.2873 11.7098 37.0446 16.881C42.1357 18.3843 45.8036 20.8697 45.8036 24.257C45.8036 27.6443 42.1357 30.1297 37.0446 31.633C38.2873 36.8042 37.9666 41.2337 35.0203 42.9174C32.0939 44.601 28.1053 42.6769 24.257 39.0089C20.4086 42.6769 16.42 44.601 13.4736 42.9174C10.5473 41.2337 10.2266 36.8042 11.4693 31.633C6.37827 30.1297 2.71033 27.6443 2.71033 24.257C2.71033 20.8697 6.37827 18.3843 11.4693 16.881C10.2266 11.7098 10.5473 7.28024 13.4736 5.5966C16.42 3.91295 20.4086 5.83712 24.257 9.50506C28.1053 5.83712 32.0939 3.91295 35.0203 5.5966ZM34.439 24.257C35.1205 25.7602 35.7218 27.2635 36.2229 28.7868C40.432 27.5241 42.7971 25.7202 42.7971 24.257C42.7971 22.7938 40.432 20.9899 36.2229 19.7272C35.7218 21.2505 35.1205 22.7537 34.439 24.257ZM14.0749 24.257C13.3935 22.7537 12.7922 21.2505 12.2911 19.7272C8.08196 20.9899 5.71684 22.7938 5.71684 24.257C5.71684 25.7202 8.08196 27.5241 12.2911 28.7868C12.7922 27.2635 13.3935 25.7602 14.0749 24.257ZM32.114 28.7868L31.5127 29.809C32.134 29.7088 32.7353 29.6086 33.2765 29.4883C33.1362 28.9271 32.9157 28.3458 32.6952 27.7646L32.114 28.7868ZM26.3214 36.8843C29.5083 39.8908 32.2743 41.0534 33.517 40.2917C34.7998 39.5902 35.1806 36.6438 34.1584 32.3545C32.6151 32.6752 30.9915 32.9157 29.348 33.0761C28.3859 34.419 27.3637 35.7018 26.3214 36.8843ZM16.4 19.7272L17.0013 18.705C16.3799 18.8052 15.7786 18.9054 15.2374 19.0257C15.3777 19.5869 15.5982 20.1681 15.8187 20.7494L16.4 19.7272ZM22.1925 11.6297C19.0056 8.62315 16.2396 7.46063 14.9769 8.22228C13.7141 8.9238 13.3333 11.8702 14.3555 16.1595C15.945 15.8333 17.5508 15.5925 19.1659 15.4379C20.128 14.095 21.1502 12.8122 22.1925 11.6297Z" fill="#00D8FF"/>
</svg>
