<svg width="50" height="41" viewBox="0 0 50 41" fill="none" xmlns="http://www.w3.org/2000/svg">
<g clip-path="url(#clip0_17_90)" filter="url(#filter0_d_17_90)">
<path d="M24.8403 8.36255C19.3999 8.36255 16.0009 11.0816 14.6398 16.522C16.6792 13.8026 19.0601 12.7829 21.7795 13.4628C23.3322 13.8498 24.4418 14.9757 25.6707 16.2233C27.6706 18.2529 29.9855 20.6026 35.0409 20.6026C40.4809 20.6026 43.8803 17.8832 45.2414 12.4415C43.2016 15.1625 40.8211 16.1822 38.1013 15.5023C36.5489 15.115 35.4406 13.9894 34.2101 12.7418C32.2115 10.7122 29.8972 8.36255 24.8403 8.36255ZM14.6398 20.6026C9.19968 20.6026 5.80034 23.322 4.43921 28.7636C6.47868 26.0426 8.85923 25.0229 11.579 25.7028C13.1317 26.0901 14.2413 27.2157 15.4701 28.4634C17.4701 30.493 19.785 32.8426 24.8403 32.8426C30.2804 32.8426 33.6797 30.1235 35.0409 24.6831C33.0011 27.4025 30.6205 28.4222 27.9008 27.7423C26.3484 27.3553 25.24 26.2294 24.0096 24.9818C22.0109 22.9522 19.6967 20.6026 14.6398 20.6026Z" fill="#38BDF8"/>
</g>
<defs>
<filter id="filter0_d_17_90" x="0.437927" y="0.201477" width="48.8022" height="48.8022" filterUnits="userSpaceOnUse" color-interpolation-filters="sRGB">
<feFlood flood-opacity="0" result="BackgroundImageFix"/>
<feColorMatrix in="SourceAlpha" type="matrix" values="0 0 0 0 0 0 0 0 0 0 0 0 0 0 0 0 0 0 127 0" result="hardAlpha"/>
<feOffset dy="4"/>
<feGaussianBlur stdDeviation="2"/>
<feComposite in2="hardAlpha" operator="out"/>
<feColorMatrix type="matrix" values="0 0 0 0 0 0 0 0 0 0 0 0 0 0 0 0 0 0 0.25 0"/>
<feBlend mode="normal" in2="BackgroundImageFix" result="effect1_dropShadow_17_90"/>
<feBlend mode="normal" in="SourceGraphic" in2="effect1_dropShadow_17_90" result="shape"/>
</filter>
<clipPath id="clip0_17_90">
<rect width="40.8022" height="40.8022" fill="white" transform="translate(4.43793 0.201477)"/>
</clipPath>
</defs>
</svg>
